<svg width="24" height="22" viewBox="0 0 24 22" fill="none" xmlns="http://www.w3.org/2000/svg">
<path d="M11.9906 0.788331C6.19453 0.785987 1.5 5.47817 1.5 11.2696C1.5 15.8493 4.43672 19.7422 8.52656 21.1719C9.07734 21.3102 8.99297 20.9188 8.99297 20.6516V18.8352C5.8125 19.2079 5.68359 17.1032 5.47031 16.7516C5.03906 16.0157 4.01953 15.8282 4.32422 15.4766C5.04844 15.104 5.78672 15.5704 6.64219 16.8336C7.26094 17.75 8.46797 17.5954 9.07969 17.443C9.21328 16.8922 9.49922 16.4 9.89297 16.018C6.59766 15.4274 5.22422 13.4165 5.22422 11.0258C5.22422 9.86567 5.60625 8.79927 6.35625 7.93911C5.87813 6.52114 6.40078 5.30708 6.47109 5.12661C7.83281 5.00474 9.24844 6.10161 9.35859 6.18833C10.132 5.97974 11.0156 5.86958 12.0047 5.86958C12.9984 5.86958 13.8844 5.98442 14.6648 6.19536C14.9297 5.9938 16.2422 5.05161 17.5078 5.16646C17.5758 5.34692 18.0867 6.53286 17.6367 7.93208C18.3961 8.79458 18.7828 9.87036 18.7828 11.0329C18.7828 13.4282 17.4 15.4415 14.0953 16.0227C14.3784 16.3011 14.6031 16.633 14.7564 16.9992C14.9098 17.3654 14.9886 17.7585 14.9883 18.1555V20.7922C15.007 21.0032 14.9883 21.2118 15.3398 21.2118C19.4906 19.8125 22.4789 15.8915 22.4789 11.2719C22.4789 5.47817 17.782 0.788331 11.9906 0.788331Z" fill="currentColor"/>
</svg>
