<svg width="117" height="31" viewBox="0 0 117 31" fill="none" xmlns="http://www.w3.org/2000/svg">
<path d="M54.8 23.9V26H43.73V7.43H46.19V23.9H54.8ZM68.87 25.61C68.33 25.75 67.61 25.9 66.71 26.06C65.83 26.22 64.79 26.3 63.59 26.3C62.53 26.3 61.65 26.15 60.95 25.85C60.25 25.53 59.68 25.09 59.24 24.53C58.8 23.95 58.49 23.27 58.31 22.49C58.13 21.71 58.04 20.85 58.04 19.91V12.08H60.5V19.37C60.5 21.09 60.75 22.31 61.25 23.03C61.77 23.75 62.63 24.11 63.83 24.11C64.09 24.11 64.35 24.1 64.61 24.08C64.89 24.06 65.15 24.04 65.39 24.02C65.63 23.98 65.84 23.95 66.02 23.93C66.2 23.89 66.32 23.86 66.38 23.84V12.08H68.87V25.61ZM72.23 12.47C73.43 12.01 74.56 11.78 75.62 11.78C76.2 11.78 76.74 11.87 77.24 12.05C77.76 12.21 78.2 12.47 78.56 12.83C79.42 12.13 80.34 11.78 81.32 11.78C81.8 11.78 82.25 11.87 82.67 12.05C83.11 12.23 83.49 12.5 83.81 12.86C84.15 13.22 84.42 13.67 84.62 14.21C84.82 14.75 84.92 15.38 84.92 16.1V26H82.67V16.04C82.67 15.32 82.51 14.77 82.19 14.39C81.87 14.01 81.47 13.82 80.99 13.82C80.75 13.82 80.5 13.88 80.24 14C79.98 14.12 79.74 14.31 79.52 14.57C79.64 15.03 79.7 15.54 79.7 16.1V20.63H77.45V16.07C77.45 15.37 77.34 14.82 77.12 14.42C76.9 14.02 76.47 13.82 75.83 13.82C75.43 13.82 74.98 13.91 74.48 14.09V26H72.23V12.47ZM93.77 11.75C95.65 11.75 97.1 12.34 98.12 13.52C99.14 14.68 99.65 16.45 99.65 18.83V19.7H89.69C89.79 21.14 90.26 22.24 91.1 23C91.96 23.74 93.16 24.11 94.7 24.11C95.58 24.11 96.33 24.04 96.95 23.9C97.57 23.76 98.04 23.61 98.36 23.45L98.69 25.55C98.39 25.71 97.85 25.88 97.07 26.06C96.29 26.24 95.41 26.33 94.43 26.33C93.23 26.33 92.17 26.15 91.25 25.79C90.35 25.41 89.6 24.9 89 24.26C88.4 23.62 87.95 22.86 87.65 21.98C87.35 21.08 87.2 20.11 87.2 19.07C87.2 17.83 87.39 16.75 87.77 15.83C88.15 14.91 88.65 14.15 89.27 13.55C89.89 12.95 90.59 12.5 91.37 12.2C92.15 11.9 92.95 11.75 93.77 11.75ZM97.13 17.69C97.13 16.51 96.82 15.58 96.2 14.9C95.58 14.2 94.76 13.85 93.74 13.85C93.16 13.85 92.63 13.96 92.15 14.18C91.69 14.4 91.29 14.69 90.95 15.05C90.61 15.41 90.34 15.82 90.14 16.28C89.94 16.74 89.81 17.21 89.75 17.69H97.13ZM108.65 24.23C109.27 24.23 109.82 24.21 110.3 24.17C110.8 24.13 111.21 24.08 111.53 24.02V19.88C111.21 19.78 110.82 19.7 110.36 19.64C109.92 19.58 109.45 19.55 108.95 19.55C108.49 19.55 108.04 19.59 107.6 19.67C107.16 19.73 106.77 19.85 106.43 20.03C106.09 20.21 105.81 20.45 105.59 20.75C105.37 21.03 105.26 21.39 105.26 21.83C105.26 22.73 105.56 23.36 106.16 23.72C106.78 24.06 107.61 24.23 108.65 24.23ZM108.41 11.75C109.45 11.75 110.32 11.88 111.02 12.14C111.74 12.4 112.32 12.76 112.76 13.22C113.2 13.68 113.51 14.24 113.69 14.9C113.87 15.56 113.96 16.28 113.96 17.06V25.76C113.38 25.86 112.61 25.98 111.65 26.12C110.71 26.26 109.74 26.33 108.74 26.33C107.98 26.33 107.24 26.26 106.52 26.12C105.8 26 105.16 25.78 104.6 25.46C104.04 25.12 103.59 24.66 103.25 24.08C102.91 23.5 102.74 22.76 102.74 21.86C102.74 21.06 102.91 20.39 103.25 19.85C103.61 19.29 104.06 18.84 104.6 18.5C105.16 18.16 105.79 17.92 106.49 17.78C107.21 17.62 107.93 17.54 108.65 17.54C109.63 17.54 110.59 17.65 111.53 17.87V17.18C111.53 16.76 111.48 16.36 111.38 15.98C111.3 15.58 111.13 15.22 110.87 14.9C110.63 14.58 110.29 14.33 109.85 14.15C109.43 13.95 108.88 13.85 108.2 13.85C107.34 13.85 106.59 13.91 105.95 14.03C105.31 14.15 104.82 14.27 104.48 14.39L104.18 12.35C104.52 12.19 105.08 12.05 105.86 11.93C106.66 11.81 107.51 11.75 108.41 11.75Z" fill="black"/>
<path d="M15.1582 18.1739V11.8261L11.8418 12.9565V19.2738L15.1582 18.1739Z" fill="#D9D9D9"/>
<path d="M1 6.82609V22.8696M1 6.82609L15.1582 2M1 6.82609L11.8418 12.9565M1 22.8696L11.8418 29M1 22.8696L11.8418 19.2738M11.8418 29L26 24.1739M11.8418 29V19.2738M26 24.1739L15.1582 18.1739M26 24.1739V8.13043M15.1582 18.1739V11.8261M15.1582 18.1739L11.8418 19.2738M15.1582 2L26 8.13043M15.1582 2V11.8261M26 8.13043L15.1582 11.8261M11.8418 12.9565L15.1582 11.8261M11.8418 12.9565V19.2738" stroke="black" stroke-width="2"/>
</svg>
